<?xml version="1.0" encoding="utf-8" standalone="no"?>
<!DOCTYPE svg PUBLIC "-//W3C//DTD SVG 1.1//EN"
  "http://www.w3.org/Graphics/SVG/1.1/DTD/svg11.dtd">
<!-- Created with matplotlib (http://matplotlib.org/) -->
<svg height="432pt" version="1.1" viewBox="0 0 576 432" width="576pt" xmlns="http://www.w3.org/2000/svg" xmlns:xlink="http://www.w3.org/1999/xlink">
 <defs>
  <style type="text/css">
*{stroke-linecap:butt;stroke-linejoin:round;}
  </style>
 </defs>
 <g id="figure_1">
  <g id="patch_1">
   <path d="
M0 432
L576 432
L576 0
L0 0
z
" style="fill:#ffffff;"/>
  </g>
  <g id="axes_1">
   <g id="line2d_1">
    <path clip-path="url(#p7ff5b81e1d)" d="
M210.832 271.8
L210.832 244.959" style="fill:none;stroke:#000000;stroke-linecap:square;"/>
   </g>
   <g id="line2d_2">
    <path clip-path="url(#p7ff5b81e1d)" d="
M210.832 244.959
L211.019 245.117
L211.206 245.275
L211.393 245.433
L211.579 245.591
L211.765 245.75
L211.951 245.909
L212.137 246.068
L212.322 246.227
L212.508 246.387
L212.693 246.547
L212.877 246.707
L213.062 246.867
L213.246 247.028
L213.431 247.188
L213.615 247.35
L213.798 247.511
L213.982 247.672
L214.165 247.834
L214.348 247.996
L214.531 248.159
L214.714 248.321
L214.896 248.484
L215.079 248.647
L215.261 248.811
L215.442 248.974
L215.624 249.138
L215.805 249.302
L215.986 249.466
L216.167 249.631
L216.348 249.796
L216.528 249.961
L216.709 250.126
L216.889 250.292
L217.068 250.457
L217.248 250.623
L217.427 250.79
L217.606 250.956
L217.785 251.123
L217.964 251.29
L218.142 251.457
L218.321 251.624
L218.499 251.792
L218.676 251.96
L218.854 252.128
L219.031 252.297
L219.208 252.465
L219.385 252.634
L219.562 252.803
L219.738 252.973
L219.914 253.142
L220.09 253.312
L220.266 253.482
L220.441 253.653
L220.617 253.823
L220.792 253.994
L220.966 254.165
L221.141 254.336
L221.315 254.508
L221.489 254.68
L221.663 254.852
L221.837 255.024
L222.01 255.196
L222.183 255.369
L222.356 255.542
L222.529 255.715
L222.701 255.888
L222.873 256.062
L223.045 256.236
L223.217 256.41
L223.389 256.584
L223.56 256.759
L223.731 256.934
L223.902 257.109
L224.072 257.284
L224.243 257.459
L224.413 257.635
L224.583 257.811
L224.752 257.987
L224.922 258.164
L225.091 258.34
L225.26 258.517
L225.428 258.694
L225.597 258.871
L225.765 259.049
L225.933 259.227
L226.1 259.405
L226.268 259.583
L226.435 259.761
L226.602 259.94
L226.769 260.119
L226.935 260.298
L227.102 260.477
L227.268 260.657
L227.433 260.837
L227.599 261.017
L227.764 261.197
L227.929 261.377
L228.094 261.558
L228.259 261.739" style="fill:none;stroke:#000000;stroke-linecap:square;"/>
   </g>
   <g id="line2d_3">
    <path clip-path="url(#p7ff5b81e1d)" d="
M228.259 261.739
L227.843 260.457
L227.418 259.178
L226.983 257.902
L226.539 256.63
L226.085 255.361
L225.622 254.095
L225.149 252.833
L224.668 251.574
L224.176 250.319
L223.676 249.068
L223.166 247.82
L222.647 246.576
L222.118 245.337
L221.58 244.101
L221.034 242.869
L220.478 241.641
L219.912 240.418
L219.338 239.198
L218.755 237.983
L218.163 236.773
L217.561 235.566
L216.951 234.365
L216.332 233.168
L215.703 231.975
L215.066 230.788
L214.421 229.605
L213.766 228.427
L213.103 227.253
L212.431 226.085
L211.75 224.922
L211.06 223.764
L210.362 222.611
L209.656 221.463
L208.941 220.321
L208.217 219.184
L207.485 218.052
L206.744 216.926
L205.995 215.806
L205.238 214.691
L204.473 213.581
L203.699 212.478
L202.917 211.38
L202.127 210.288
L201.329 209.202
L200.523 208.122
L199.709 207.048
L198.886 205.98
L198.056 204.918
L197.218 203.863
L196.372 202.814
L195.519 201.771
L194.657 200.734
L193.788 199.704
L192.911 198.681
L192.027 197.663
L191.135 196.653
L190.236 195.649
L189.329 194.652
L188.414 193.662
L187.493 192.679
L186.564 191.702
L185.628 190.733
L184.684 189.77
L183.734 188.815
L182.776 187.866
L181.812 186.925
L180.84 185.991
L179.861 185.064
L178.876 184.145
L177.884 183.233
L176.885 182.328
L175.879 181.431
L174.867 180.541
L173.848 179.659
L172.822 178.784
L171.79 177.918
L170.752 177.058
L169.707 176.207
L168.656 175.363
L167.598 174.528
L166.535 173.7
L165.465 172.88
L164.389 172.068
L163.307 171.264
L162.22 170.468
L161.126 169.681
L160.027 168.901
L158.921 168.13
L157.81 167.367
L156.694 166.612
L155.571 165.866
L154.444 165.128
L153.311 164.398
L152.172 163.677
L151.028 162.965
L149.879 162.261
L148.724 161.565
L147.565 160.878
L146.4 160.2" style="fill:none;stroke:#000000;stroke-linecap:square;"/>
   </g>
   <g id="line2d_4">
    <path clip-path="url(#p7ff5b81e1d)" d="
M146.4 160.2
L123.155 173.62" style="fill:none;stroke:#000000;stroke-linecap:square;"/>
   </g>
   <g id="line2d_5">
    <path clip-path="url(#p7ff5b81e1d)" d="
M123.155 173.62
L123.198 173.38
L123.242 173.139
L123.285 172.898
L123.329 172.658
L123.373 172.417
L123.418 172.177
L123.463 171.936
L123.508 171.696
L123.554 171.456
L123.6 171.216
L123.646 170.976
L123.692 170.735
L123.739 170.495
L123.787 170.256
L123.834 170.016
L123.882 169.776
L123.93 169.536
L123.979 169.296
L124.027 169.057
L124.077 168.817
L124.126 168.578
L124.176 168.338
L124.226 168.099
L124.276 167.86
L124.327 167.62
L124.378 167.381
L124.43 167.142
L124.481 166.903
L124.533 166.664
L124.586 166.425
L124.639 166.187
L124.692 165.948
L124.745 165.709
L124.799 165.471
L124.853 165.232
L124.907 164.994
L124.962 164.755
L125.017 164.517
L125.072 164.279
L125.127 164.041
L125.183 163.803
L125.24 163.565
L125.296 163.327
L125.353 163.089
L125.41 162.851
L125.468 162.614
L125.526 162.376
L125.584 162.138
L125.642 161.901
L125.701 161.664
L125.76 161.426
L125.82 161.189
L125.879 160.952
L125.94 160.715
L126 160.478
L126.061 160.241
L126.122 160.004
L126.183 159.768
L126.245 159.531
L126.307 159.294
L126.369 159.058
L126.432 158.822
L126.495 158.585
L126.558 158.349
L126.622 158.113
L126.686 157.877
L126.75 157.641
L126.815 157.405
L126.879 157.169
L126.945 156.934
L127.01 156.698
L127.076 156.463
L127.142 156.227
L127.209 155.992
L127.275 155.757
L127.343 155.521
L127.41 155.286
L127.478 155.051
L127.546 154.817
L127.614 154.582
L127.683 154.347
L127.752 154.112
L127.821 153.878
L127.891 153.644
L127.961 153.409
L128.031 153.175
L128.102 152.941
L128.173 152.707
L128.244 152.473
L128.316 152.239
L128.387 152.005
L128.46 151.772
L128.532 151.538
L128.605 151.305
L128.678 151.071
L128.752 150.838
L128.825 150.605
L128.899 150.372
L128.974 150.139" style="fill:none;stroke:#000000;stroke-linecap:square;"/>
   </g>
   <g id="line2d_6">
    <path clip-path="url(#p7ff5b81e1d)" d="
M128.974 150.139
L128.071 151.14
L127.176 152.148
L126.289 153.162
L125.409 154.183
L124.537 155.21
L123.672 156.244
L122.815 157.285
L121.966 158.331
L121.125 159.384
L120.292 160.443
L119.466 161.509
L118.649 162.58
L117.839 163.658
L117.038 164.741
L116.244 165.831
L115.459 166.926
L114.682 168.028
L113.913 169.135
L113.153 170.247
L112.4 171.366
L111.656 172.489
L110.921 173.619
L110.194 174.754
L109.475 175.894
L108.765 177.039
L108.064 178.19
L107.371 179.346
L106.686 180.507
L106.011 181.673
L105.344 182.844
L104.685 184.021
L104.036 185.202
L103.395 186.387
L102.764 187.578
L102.141 188.773
L101.527 189.973
L100.922 191.177
L100.326 192.386
L99.7388 193.599
L99.1609 194.817
L98.592 196.039
L98.0323 197.265
L97.4817 198.495
L96.9403 199.729
L96.408 200.967
L95.8851 202.209
L95.3714 203.455
L94.867 204.705
L94.3719 205.959
L93.8861 207.216
L93.4098 208.477
L92.9428 209.741
L92.4853 211.009
L92.0372 212.28
L91.5986 213.554
L91.1695 214.832
L90.75 216.113
L90.34 217.397
L89.9395 218.683
L89.5487 219.973
L89.1675 221.266
L88.7959 222.562
L88.434 223.86
L88.0817 225.161
L87.7392 226.464
L87.4064 227.77
L87.0833 229.079
L86.77 230.39
L86.4664 231.703
L86.1726 233.018
L85.8887 234.336
L85.6145 235.655
L85.3502 236.977
L85.0958 238.3
L84.8512 239.626
L84.6165 240.953
L84.3917 242.282
L84.1768 243.612
L83.9718 244.944
L83.7767 246.278
L83.5916 247.613
L83.4164 248.949
L83.2512 250.287
L83.0959 251.626
L82.9506 252.965
L82.8153 254.306
L82.69 255.648
L82.5747 256.991
L82.4694 258.335
L82.3741 259.679
L82.2889 261.024
L82.2136 262.37
L82.1484 263.716
L82.0932 265.063
L82.048 266.41
L82.0129 267.757
L81.9878 269.105
L81.9727 270.452
L81.9677 271.8" style="fill:none;stroke:#000000;stroke-linecap:square;"/>
   </g>
   <g id="line2d_7">
    <path clip-path="url(#p7ff5b81e1d)" d="
M81.9677 271.8
L105.212 285.22" style="fill:none;stroke:#000000;stroke-linecap:square;"/>
   </g>
   <g id="line2d_8">
    <path clip-path="url(#p7ff5b81e1d)" d="
M105.212 285.22
L104.982 285.303
L104.752 285.386
L104.522 285.469
L104.292 285.551
L104.061 285.633
L103.831 285.715
L103.6 285.796
L103.37 285.877
L103.139 285.957
L102.908 286.038
L102.677 286.118
L102.445 286.198
L102.214 286.277
L101.983 286.356
L101.751 286.435
L101.52 286.513
L101.288 286.591
L101.056 286.669
L100.824 286.747
L100.592 286.824
L100.36 286.901
L100.128 286.978
L99.8954 287.054
L99.663 287.13
L99.4304 287.205
L99.1978 287.281
L98.965 287.356
L98.7322 287.43
L98.4992 287.505
L98.2662 287.579
L98.033 287.653
L97.7998 287.726
L97.5664 287.799
L97.333 287.872
L97.0994 287.945
L96.8658 288.017
L96.632 288.089
L96.3982 288.16
L96.1643 288.231
L95.9302 288.302
L95.6961 288.373
L95.4619 288.443
L95.2276 288.513
L94.9931 288.583
L94.7586 288.652
L94.524 288.721
L94.2893 288.79
L94.0546 288.858
L93.8197 288.926
L93.5847 288.994
L93.3496 289.061
L93.1145 289.128
L92.8792 289.195
L92.6439 289.262
L92.4085 289.328
L92.173 289.394
L91.9374 289.459
L91.7017 289.524
L91.4659 289.589
L91.23 289.654
L90.9941 289.718
L90.7581 289.782
L90.5219 289.846
L90.2857 289.909
L90.0494 289.972
L89.813 290.035
L89.5766 290.097
L89.34 290.159
L89.1034 290.221
L88.8667 290.282
L88.6299 290.343
L88.393 290.404
L88.156 290.464
L87.919 290.524
L87.6819 290.584
L87.4447 290.643
L87.2074 290.703
L86.97 290.761
L86.7326 290.82
L86.4951 290.878
L86.2574 290.936
L86.0198 290.993
L85.782 291.051
L85.5442 291.108
L85.3063 291.164
L85.0683 291.22
L84.8302 291.276
L84.5921 291.332
L84.3539 291.387
L84.1156 291.442
L83.8772 291.497
L83.6388 291.551
L83.4003 291.605
L83.1617 291.659
L82.923 291.712
L82.6843 291.765
L82.4455 291.818
L82.2066 291.87
L81.9677 291.922" style="fill:none;stroke:#000000;stroke-linecap:square;"/>
   </g>
   <g id="line2d_9">
    <path clip-path="url(#p7ff5b81e1d)" d="
M81.9677 291.922
L83.2858 292.203
L84.606 292.474
L85.9282 292.736
L87.2523 292.987
L88.5782 293.229
L89.9059 293.461
L91.2353 293.683
L92.5662 293.895
L93.8988 294.097
L95.2328 294.289
L96.5682 294.471
L97.9049 294.643
L99.2428 294.806
L100.582 294.958
L101.922 295.1
L103.263 295.232
L104.606 295.355
L105.949 295.467
L107.293 295.57
L108.637 295.662
L109.982 295.744
L111.328 295.816
L112.675 295.879
L114.021 295.931
L115.368 295.973
L116.716 296.005
L118.063 296.027
L119.411 296.039
L120.759 296.042
L122.107 296.034
L123.454 296.016
L124.802 295.987
L126.149 295.949
L127.496 295.901
L128.842 295.843
L130.188 295.775
L131.534 295.697
L132.879 295.608
L134.223 295.51
L135.566 295.402
L136.909 295.284
L138.25 295.155
L139.591 295.017
L140.931 294.869
L142.269 294.711
L143.606 294.543
L144.942 294.364
L146.277 294.176
L147.61 293.978
L148.942 293.77
L150.272 293.553
L151.6 293.325
L152.927 293.087
L154.252 292.84
L155.575 292.582
L156.896 292.315
L158.215 292.038
L159.531 291.751
L160.846 291.454
L162.159 291.148
L163.469 290.832
L164.776 290.506
L166.082 290.17
L167.384 289.825
L168.685 289.47
L169.982 289.105
L171.277 288.73
L172.569 288.346
L173.858 287.953
L175.144 287.549
L176.427 287.137
L177.707 286.714
L178.983 286.282
L180.257 285.841
L181.527 285.39
L182.793 284.93
L184.057 284.46
L185.316 283.981
L186.573 283.492
L187.825 282.994
L189.074 282.487
L190.319 281.971
L191.56 281.445
L192.797 280.91
L194.03 280.366
L195.259 279.813
L196.483 279.25
L197.704 278.679
L198.92 278.098
L200.132 277.508
L201.34 276.91
L202.543 276.302
L203.741 275.685
L204.935 275.06
L206.124 274.426
L207.308 273.782
L208.488 273.13
L209.663 272.47
L210.832 271.8" style="fill:none;stroke:#000000;stroke-linecap:square;"/>
   </g>
   <g id="line2d_10">
    <path clip-path="url(#p7ff5b81e1d)" d="
M213.064 271.8
L213.064 249.841" style="fill:none;stroke:#ff0000;stroke-linecap:square;"/>
   </g>
   <g id="line2d_11">
    <path clip-path="url(#p7ff5b81e1d)" d="
M213.064 249.841
L213.208 249.969
L213.352 250.097
L213.495 250.226
L213.639 250.354
L213.782 250.483
L213.925 250.611
L214.068 250.74
L214.211 250.869
L214.354 250.999
L214.496 251.128
L214.639 251.258
L214.781 251.387
L214.923 251.517
L215.065 251.647
L215.207 251.777
L215.349 251.908
L215.49 252.038
L215.632 252.169
L215.773 252.299
L215.914 252.43
L216.055 252.561
L216.196 252.693
L216.337 252.824
L216.477 252.955
L216.618 253.087
L216.758 253.219
L216.898 253.351
L217.038 253.483
L217.178 253.615
L217.318 253.748
L217.457 253.88
L217.597 254.013
L217.736 254.146
L217.875 254.279
L218.014 254.412
L218.153 254.545
L218.292 254.679
L218.431 254.812
L218.569 254.946
L218.707 255.08
L218.845 255.214
L218.983 255.348
L219.121 255.483
L219.259 255.617
L219.397 255.752
L219.534 255.887
L219.671 256.022
L219.809 256.157
L219.946 256.292
L220.082 256.428
L220.219 256.563
L220.356 256.699
L220.492 256.835
L220.628 256.971
L220.764 257.107
L220.9 257.243
L221.036 257.379
L221.172 257.516
L221.307 257.653
L221.443 257.79
L221.578 257.927
L221.713 258.064
L221.848 258.201
L221.983 258.339
L222.118 258.476
L222.252 258.614
L222.386 258.752
L222.521 258.89
L222.655 259.028
L222.789 259.166
L222.922 259.305
L223.056 259.443
L223.189 259.582
L223.323 259.721
L223.456 259.86
L223.589 259.999
L223.722 260.139
L223.854 260.278
L223.987 260.418
L224.119 260.557
L224.252 260.697
L224.384 260.837
L224.516 260.978
L224.648 261.118
L224.779 261.258
L224.911 261.399
L225.042 261.54
L225.173 261.681
L225.304 261.822
L225.435 261.963
L225.566 262.104
L225.697 262.246
L225.827 262.387
L225.957 262.529
L226.087 262.671
L226.217 262.813
L226.347 262.955
L226.477 263.097
L226.606 263.24" style="fill:none;stroke:#ff0000;stroke-linecap:square;"/>
   </g>
   <g id="line2d_12">
    <path clip-path="url(#p7ff5b81e1d)" d="
M226.606 263.24
L226.648 263.284
L226.691 263.328
L226.735 263.37
L226.781 263.411
L226.827 263.451
L226.874 263.49
L226.923 263.527
L226.972 263.563
L227.023 263.598
L227.074 263.631
L227.127 263.663
L227.18 263.693
L227.234 263.722
L227.288 263.749
L227.344 263.775
L227.4 263.799
L227.457 263.822
L227.514 263.843
L227.572 263.863
L227.631 263.881
L227.69 263.897
L227.749 263.912
L227.809 263.925
L227.869 263.937
L227.929 263.947
L227.99 263.955
L228.051 263.961
L228.112 263.966
L228.173 263.969
L228.234 263.971
L228.295 263.971
L228.356 263.969
L228.417 263.965
L228.478 263.96
L228.539 263.953
L228.6 263.945
L228.66 263.935
L228.72 263.923
L228.78 263.909
L228.839 263.894
L228.898 263.877
L228.956 263.859
L229.014 263.839
L229.072 263.818
L229.128 263.795
L229.184 263.77
L229.24 263.744
L229.294 263.716
L229.348 263.687
L229.401 263.656
L229.453 263.624
L229.504 263.591
L229.555 263.556
L229.604 263.52
L229.652 263.482
L229.699 263.444
L229.746 263.403
L229.791 263.362
L229.835 263.319
L229.877 263.276
L229.919 263.231
L229.959 263.185
L229.998 263.137
L230.036 263.089
L230.072 263.04
L230.107 262.99
L230.141 262.939
L230.173 262.887
L230.204 262.834
L230.233 262.78
L230.261 262.725
L230.287 262.67
L230.312 262.614
L230.335 262.558
L230.357 262.5
L230.377 262.443
L230.395 262.384
L230.412 262.325
L230.427 262.266
L230.441 262.207
L230.453 262.147
L230.463 262.086
L230.472 262.026
L230.479 261.965
L230.484 261.904
L230.488 261.843
L230.49 261.782
L230.49 261.721
L230.489 261.659
L230.486 261.598
L230.481 261.537
L230.475 261.476
L230.467 261.416
L230.457 261.355
L230.446 261.295
L230.433 261.235
L230.418 261.176
L230.402 261.117
L230.384 261.058" style="fill:none;stroke:#ff0000;stroke-linecap:square;"/>
   </g>
   <g id="line2d_13">
    <path clip-path="url(#p7ff5b81e1d)" d="
M230.384 261.058
L229.963 259.761
L229.533 258.466
L229.093 257.174
L228.643 255.886
L228.184 254.602
L227.715 253.32
L227.237 252.042
L226.749 250.768
L226.252 249.498
L225.745 248.231
L225.229 246.968
L224.703 245.709
L224.168 244.454
L223.624 243.203
L223.07 241.956
L222.507 240.713
L221.935 239.474
L221.354 238.24
L220.763 237.01
L220.164 235.784
L219.555 234.563
L218.937 233.347
L218.31 232.135
L217.674 230.928
L217.029 229.725
L216.376 228.528
L215.713 227.335
L215.041 226.148
L214.361 224.965
L213.672 223.787
L212.974 222.615
L212.267 221.448
L211.552 220.286
L210.828 219.13
L210.095 217.978
L209.354 216.833
L208.605 215.693
L207.847 214.559
L207.08 213.43
L206.305 212.307
L205.522 211.19
L204.73 210.078
L203.931 208.973
L203.123 207.874
L202.306 206.78
L201.482 205.693
L200.65 204.612
L199.809 203.537
L198.961 202.469
L198.105 201.406
L197.24 200.351
L196.368 199.301
L195.489 198.258
L194.601 197.222
L193.706 196.193
L192.803 195.17
L191.892 194.154
L190.974 193.144
L190.049 192.142
L189.116 191.146
L188.175 190.158
L187.228 189.176
L186.273 188.202
L185.31 187.235
L184.341 186.274
L183.364 185.322
L182.381 184.376
L181.39 183.438
L180.393 182.507
L179.388 181.584
L178.377 180.668
L177.359 179.76
L176.334 178.859
L175.302 177.966
L174.264 177.081
L173.219 176.203
L172.168 175.333
L171.11 174.471
L170.046 173.617
L168.976 172.771
L167.899 171.933
L166.816 171.103
L165.727 170.282
L164.632 169.468
L163.531 168.662
L162.424 167.865
L161.311 167.076
L160.192 166.295
L159.067 165.523
L157.937 164.758
L156.801 164.003
L155.659 163.256
L154.512 162.517
L153.359 161.787
L152.201 161.066
L151.038 160.353
L149.869 159.649
L148.695 158.954
L147.516 158.267" style="fill:none;stroke:#ff0000;stroke-linecap:square;"/>
   </g>
   <g id="line2d_14">
    <path clip-path="url(#p7ff5b81e1d)" d="
M147.516 158.267
L147.495 158.255
L147.475 158.244
L147.454 158.233
L147.433 158.222
L147.412 158.211
L147.391 158.2
L147.37 158.19
L147.349 158.18
L147.327 158.17
L147.306 158.16
L147.284 158.151
L147.262 158.141
L147.24 158.132
L147.219 158.124
L147.197 158.115
L147.174 158.107
L147.152 158.099
L147.13 158.091
L147.108 158.083
L147.085 158.076
L147.063 158.069
L147.04 158.062
L147.017 158.055
L146.995 158.049
L146.972 158.043
L146.949 158.037
L146.926 158.031
L146.903 158.025
L146.88 158.02
L146.857 158.015
L146.834 158.011
L146.811 158.006
L146.788 158.002
L146.764 157.998
L146.741 157.994
L146.718 157.991
L146.694 157.987
L146.671 157.984
L146.647 157.982
L146.624 157.979
L146.6 157.977
L146.577 157.975
L146.553 157.973
L146.53 157.972
L146.506 157.971
L146.483 157.97
L146.459 157.969
L146.435 157.968
L146.412 157.968
L146.388 157.968
L146.365 157.968
L146.341 157.969
L146.317 157.97
L146.294 157.971
L146.27 157.972
L146.247 157.973
L146.223 157.975
L146.2 157.977
L146.176 157.979
L146.153 157.982
L146.129 157.984
L146.106 157.987
L146.082 157.991
L146.059 157.994
L146.036 157.998
L146.012 158.002
L145.989 158.006
L145.966 158.011
L145.943 158.015
L145.92 158.02
L145.897 158.025
L145.874 158.031
L145.851 158.037
L145.828 158.043
L145.805 158.049
L145.783 158.055
L145.76 158.062
L145.737 158.069
L145.715 158.076
L145.692 158.083
L145.67 158.091
L145.648 158.099
L145.626 158.107
L145.603 158.115
L145.581 158.124
L145.56 158.132
L145.538 158.141
L145.516 158.151
L145.494 158.16
L145.473 158.17
L145.451 158.18
L145.43 158.19
L145.409 158.2
L145.388 158.211
L145.367 158.222
L145.346 158.233
L145.325 158.244
L145.305 158.255
L145.284 158.267" style="fill:none;stroke:#ff0000;stroke-linecap:square;"/>
   </g>
   <g id="line2d_15">
    <path clip-path="url(#p7ff5b81e1d)" d="
M145.284 158.267
L126.267 169.246" style="fill:none;stroke:#ff0000;stroke-linecap:square;"/>
   </g>
   <g id="line2d_16">
    <path clip-path="url(#p7ff5b81e1d)" d="
M126.267 169.246
L126.306 169.058
L126.345 168.869
L126.384 168.681
L126.424 168.493
L126.464 168.304
L126.504 168.116
L126.544 167.928
L126.584 167.739
L126.625 167.551
L126.666 167.363
L126.707 167.175
L126.748 166.987
L126.789 166.799
L126.831 166.611
L126.872 166.423
L126.914 166.235
L126.957 166.047
L126.999 165.859
L127.042 165.672
L127.084 165.484
L127.127 165.296
L127.171 165.109
L127.214 164.921
L127.258 164.734
L127.301 164.546
L127.345 164.359
L127.39 164.171
L127.434 163.984
L127.479 163.797
L127.523 163.61
L127.568 163.422
L127.614 163.235
L127.659 163.048
L127.705 162.861
L127.751 162.674
L127.797 162.487
L127.843 162.3
L127.889 162.113
L127.936 161.927
L127.983 161.74
L128.03 161.553
L128.077 161.367
L128.124 161.18
L128.172 160.994
L128.22 160.807
L128.268 160.621
L128.316 160.434
L128.365 160.248
L128.413 160.062
L128.462 159.875
L128.511 159.689
L128.56 159.503
L128.61 159.317
L128.659 159.131
L128.709 158.945
L128.759 158.759
L128.809 158.573
L128.86 158.388
L128.911 158.202
L128.961 158.016
L129.012 157.831
L129.064 157.645
L129.115 157.459
L129.167 157.274
L129.219 157.089
L129.271 156.903
L129.323 156.718
L129.375 156.533
L129.428 156.347
L129.481 156.162
L129.534 155.977
L129.587 155.792
L129.64 155.607
L129.694 155.422
L129.748 155.238
L129.802 155.053
L129.856 154.868
L129.911 154.683
L129.965 154.499
L130.02 154.314
L130.075 154.13
L130.13 153.945
L130.186 153.761
L130.241 153.577
L130.297 153.392
L130.353 153.208
L130.409 153.024
L130.466 152.84
L130.522 152.656
L130.579 152.472
L130.636 152.288
L130.694 152.104
L130.751 151.921
L130.809 151.737
L130.866 151.553
L130.924 151.37
L130.983 151.186
L131.041 151.003
L131.1 150.819" style="fill:none;stroke:#ff0000;stroke-linecap:square;"/>
   </g>
   <g id="line2d_17">
    <path clip-path="url(#p7ff5b81e1d)" d="
M131.1 150.819
L131.117 150.761
L131.134 150.702
L131.148 150.642
L131.161 150.583
L131.173 150.523
L131.182 150.462
L131.19 150.401
L131.197 150.341
L131.201 150.28
L131.204 150.219
L131.206 150.157
L131.205 150.096
L131.203 150.035
L131.2 149.974
L131.194 149.913
L131.187 149.852
L131.179 149.792
L131.168 149.731
L131.156 149.671
L131.143 149.612
L131.127 149.552
L131.11 149.494
L131.092 149.435
L131.072 149.378
L131.05 149.32
L131.027 149.264
L131.002 149.208
L130.976 149.152
L130.948 149.098
L130.919 149.044
L130.888 148.991
L130.856 148.939
L130.822 148.888
L130.787 148.838
L130.751 148.789
L130.713 148.741
L130.674 148.693
L130.634 148.647
L130.593 148.602
L130.55 148.559
L130.506 148.516
L130.461 148.475
L130.415 148.434
L130.367 148.396
L130.319 148.358
L130.27 148.322
L130.22 148.287
L130.168 148.253
L130.116 148.221
L130.063 148.191
L130.009 148.162
L129.955 148.134
L129.899 148.108
L129.843 148.083
L129.787 148.06
L129.729 148.039
L129.672 148.019
L129.613 148.001
L129.554 147.984
L129.495 147.969
L129.435 147.955
L129.375 147.943
L129.315 147.933
L129.254 147.925
L129.194 147.918
L129.133 147.913
L129.072 147.909
L129.01 147.907
L128.949 147.907
L128.888 147.909
L128.827 147.912
L128.766 147.917
L128.705 147.923
L128.645 147.931
L128.584 147.941
L128.524 147.953
L128.464 147.966
L128.405 147.981
L128.346 147.997
L128.287 148.015
L128.23 148.035
L128.172 148.056
L128.115 148.079
L128.059 148.103
L128.004 148.129
L127.949 148.156
L127.895 148.185
L127.842 148.215
L127.79 148.247
L127.738 148.28
L127.688 148.315
L127.638 148.351
L127.59 148.388
L127.542 148.427
L127.496 148.466
L127.45 148.508
L127.406 148.55
L127.363 148.594
L127.322 148.638" style="fill:none;stroke:#ff0000;stroke-linecap:square;"/>
   </g>
   <g id="line2d_18">
    <path clip-path="url(#p7ff5b81e1d)" d="
M127.322 148.638
L126.408 149.652
L125.502 150.672
L124.604 151.699
L123.713 152.732
L122.83 153.772
L121.955 154.819
L121.087 155.872
L120.228 156.932
L119.376 157.998
L118.532 159.07
L117.697 160.148
L116.869 161.233
L116.05 162.324
L115.238 163.421
L114.435 164.524
L113.64 165.633
L112.854 166.748
L112.075 167.868
L111.305 168.995
L110.544 170.127
L109.791 171.264
L109.046 172.408
L108.31 173.556
L107.583 174.711
L106.864 175.87
L106.153 177.035
L105.452 178.206
L104.759 179.381
L104.075 180.562
L103.4 181.747
L102.734 182.938
L102.076 184.133
L101.428 185.334
L100.788 186.539
L100.158 187.749
L99.5361 188.964
L98.9236 190.183
L98.3203 191.406
L97.726 192.635
L97.141 193.867
L96.5651 195.104
L95.9984 196.345
L95.441 197.591
L94.8929 198.84
L94.3542 200.094
L93.8247 201.351
L93.3047 202.612
L92.7941 203.878
L92.2929 205.147
L91.8011 206.419
L91.3189 207.696
L90.8462 208.976
L90.383 210.259
L89.9294 211.546
L89.4854 212.836
L89.051 214.129
L88.6263 215.426
L88.2112 216.725
L87.8059 218.028
L87.4102 219.334
L87.0243 220.643
L86.6481 221.954
L86.2817 223.268
L85.9252 224.585
L85.5784 225.905
L85.2415 227.227
L84.9144 228.552
L84.5972 229.879
L84.2899 231.208
L83.9925 232.54
L83.705 233.873
L83.4275 235.209
L83.16 236.547
L82.9024 237.887
L82.6548 239.229
L82.4172 240.572
L82.1896 241.918
L81.972 243.265
L81.7645 244.613
L81.567 245.963
L81.3796 247.314
L81.2023 248.667
L81.035 250.021
L80.8778 251.377
L80.7307 252.733
L80.5938 254.091
L80.4669 255.449
L80.3502 256.808
L80.2436 258.169
L80.1471 259.53
L80.0608 260.891
L79.9846 262.254
L79.9186 263.616
L79.8627 264.98
L79.817 266.343
L79.7814 267.707
L79.756 269.071
L79.7408 270.436
L79.7357 271.8" style="fill:none;stroke:#ff0000;stroke-linecap:square;"/>
   </g>
   <g id="line2d_19">
    <path clip-path="url(#p7ff5b81e1d)" d="
M79.7357 271.8
L79.7358 271.824
L79.7362 271.847
L79.7368 271.871
L79.7377 271.894
L79.7388 271.918
L79.7402 271.942
L79.7418 271.965
L79.7437 271.989
L79.7458 272.012
L79.7482 272.036
L79.7508 272.059
L79.7537 272.083
L79.7568 272.106
L79.7601 272.129
L79.7637 272.153
L79.7676 272.176
L79.7717 272.199
L79.776 272.222
L79.7806 272.246
L79.7855 272.269
L79.7906 272.292
L79.7959 272.315
L79.8014 272.338
L79.8072 272.361
L79.8133 272.383
L79.8196 272.406
L79.8261 272.429
L79.8329 272.451
L79.8399 272.474
L79.8472 272.496
L79.8546 272.519
L79.8624 272.541
L79.8703 272.563
L79.8785 272.586
L79.8869 272.608
L79.8956 272.63
L79.9045 272.651
L79.9136 272.673
L79.923 272.695
L79.9325 272.716
L79.9423 272.738
L79.9524 272.759
L79.9626 272.781
L79.9731 272.802
L79.9838 272.823
L79.9948 272.844
L80.0059 272.864
L80.0173 272.885
L80.0289 272.906
L80.0407 272.926
L80.0527 272.947
L80.0649 272.967
L80.0774 272.987
L80.09 273.007
L80.1029 273.027
L80.116 273.046
L80.1293 273.066
L80.1428 273.085
L80.1564 273.104
L80.1703 273.123
L80.1844 273.142
L80.1987 273.161
L80.2132 273.18
L80.2279 273.198
L80.2428 273.217
L80.2579 273.235
L80.2732 273.253
L80.2886 273.271
L80.3043 273.288
L80.3201 273.306
L80.3361 273.323
L80.3523 273.34
L80.3687 273.357
L80.3853 273.374
L80.402 273.391
L80.4189 273.407
L80.436 273.423
L80.4533 273.44
L80.4707 273.456
L80.4883 273.471
L80.5061 273.487
L80.524 273.502
L80.5421 273.517
L80.5603 273.532
L80.5787 273.547
L80.5973 273.562
L80.616 273.576
L80.6349 273.59
L80.6539 273.604
L80.673 273.618
L80.6923 273.632
L80.7118 273.645
L80.7314 273.658
L80.7511 273.671
L80.7709 273.684
L80.7909 273.697
L80.8111 273.709
L80.8313 273.721
L80.8517 273.733" style="fill:none;stroke:#ff0000;stroke-linecap:square;"/>
   </g>
   <g id="line2d_20">
    <path clip-path="url(#p7ff5b81e1d)" d="
M80.8517 273.733
L99.8687 284.712" style="fill:none;stroke:#ff0000;stroke-linecap:square;"/>
   </g>
   <g id="line2d_21">
    <path clip-path="url(#p7ff5b81e1d)" d="
M99.8687 284.712
L99.6859 284.773
L99.5031 284.833
L99.3202 284.893
L99.1373 284.953
L98.9543 285.013
L98.7712 285.073
L98.5881 285.132
L98.4049 285.191
L98.2216 285.25
L98.0383 285.309
L97.8549 285.368
L97.6714 285.426
L97.4879 285.484
L97.3043 285.542
L97.1207 285.6
L96.937 285.657
L96.7532 285.715
L96.5694 285.772
L96.3855 285.829
L96.2016 285.886
L96.0175 285.942
L95.8335 285.999
L95.6493 286.055
L95.4651 286.111
L95.2809 286.167
L95.0966 286.222
L94.9122 286.278
L94.7278 286.333
L94.5433 286.388
L94.3587 286.443
L94.1741 286.497
L93.9894 286.552
L93.8047 286.606
L93.6199 286.66
L93.4351 286.714
L93.2502 286.767
L93.0652 286.821
L92.8802 286.874
L92.6951 286.927
L92.51 286.98
L92.3248 287.033
L92.1396 287.085
L91.9543 287.137
L91.7689 287.189
L91.5835 287.241
L91.398 287.293
L91.2125 287.344
L91.0269 287.395
L90.8413 287.446
L90.6556 287.497
L90.4699 287.548
L90.2841 287.598
L90.0982 287.648
L89.9123 287.698
L89.7263 287.748
L89.5403 287.798
L89.3543 287.847
L89.1681 287.896
L88.982 287.945
L88.7957 287.994
L88.6095 288.043
L88.4231 288.091
L88.2367 288.139
L88.0503 288.187
L87.8638 288.235
L87.6773 288.283
L87.4907 288.33
L87.3041 288.377
L87.1174 288.425
L86.9306 288.471
L86.7438 288.518
L86.557 288.564
L86.3701 288.611
L86.1832 288.657
L85.9962 288.702
L85.8091 288.748
L85.622 288.793
L85.4349 288.838
L85.2477 288.883
L85.0605 288.928
L84.8732 288.973
L84.6859 289.017
L84.4985 289.061
L84.3111 289.105
L84.1236 289.149
L83.9361 289.193
L83.7485 289.236
L83.5609 289.279
L83.3732 289.322
L83.1855 289.365
L82.9978 289.408
L82.81 289.45
L82.6221 289.492
L82.4342 289.534
L82.2463 289.576
L82.0583 289.617
L81.8703 289.659
L81.6822 289.7
L81.4941 289.741" style="fill:none;stroke:#ff0000;stroke-linecap:square;"/>
   </g>
   <g id="line2d_22">
    <path clip-path="url(#p7ff5b81e1d)" d="
M81.4941 289.741
L81.4345 289.755
L81.3753 289.77
L81.3165 289.787
L81.2583 289.806
L81.2005 289.826
L81.1434 289.848
L81.0868 289.871
L81.0309 289.896
L80.9758 289.923
L80.9213 289.951
L80.8677 289.98
L80.8149 290.011
L80.7629 290.043
L80.7119 290.077
L80.6618 290.112
L80.6126 290.149
L80.5645 290.186
L80.5175 290.225
L80.4715 290.266
L80.4267 290.307
L80.383 290.35
L80.3405 290.394
L80.2992 290.44
L80.2592 290.486
L80.2205 290.533
L80.1831 290.582
L80.147 290.631
L80.1123 290.681
L80.079 290.733
L80.0471 290.785
L80.0167 290.838
L79.9877 290.892
L79.9602 290.947
L79.9342 291.002
L79.9097 291.058
L79.8868 291.115
L79.8655 291.172
L79.8457 291.23
L79.8275 291.288
L79.811 291.347
L79.796 291.407
L79.7827 291.466
L79.7711 291.526
L79.761 291.587
L79.7527 291.647
L79.746 291.708
L79.7409 291.769
L79.7376 291.83
L79.7359 291.891
L79.7359 291.953
L79.7376 292.014
L79.7409 292.075
L79.746 292.136
L79.7527 292.197
L79.761 292.257
L79.7711 292.318
L79.7827 292.378
L79.796 292.437
L79.811 292.497
L79.8275 292.556
L79.8457 292.614
L79.8655 292.672
L79.8868 292.729
L79.9097 292.786
L79.9342 292.842
L79.9602 292.898
L79.9877 292.952
L80.0167 293.006
L80.0471 293.059
L80.079 293.111
L80.1123 293.163
L80.147 293.213
L80.1831 293.263
L80.2205 293.311
L80.2592 293.358
L80.2992 293.405
L80.3405 293.45
L80.383 293.494
L80.4267 293.537
L80.4715 293.578
L80.5175 293.619
L80.5645 293.658
L80.6126 293.696
L80.6618 293.732
L80.7119 293.767
L80.7629 293.801
L80.8149 293.833
L80.8677 293.864
L80.9213 293.894
L80.9758 293.922
L81.0309 293.948
L81.0868 293.973
L81.1434 293.996
L81.2005 294.018
L81.2583 294.038
L81.3165 294.057
L81.3753 294.074
L81.4345 294.089
L81.4941 294.103" style="fill:none;stroke:#ff0000;stroke-linecap:square;"/>
   </g>
   <g id="line2d_23">
    <path clip-path="url(#p7ff5b81e1d)" d="
M81.4941 294.103
L82.8285 294.388
L84.165 294.662
L85.5035 294.927
L86.8439 295.182
L88.1862 295.426
L89.5302 295.661
L90.876 295.886
L92.2234 296.1
L93.5724 296.305
L94.9228 296.499
L96.2747 296.684
L97.6279 296.858
L98.9823 297.022
L100.338 297.176
L101.695 297.321
L103.053 297.454
L104.411 297.578
L105.771 297.692
L107.131 297.796
L108.493 297.889
L109.854 297.972
L111.217 298.046
L112.58 298.109
L113.943 298.162
L115.307 298.204
L116.671 298.237
L118.035 298.259
L119.399 298.271
L120.764 298.274
L122.128 298.265
L123.492 298.247
L124.856 298.219
L126.22 298.18
L127.584 298.131
L128.947 298.073
L130.31 298.004
L131.672 297.924
L133.033 297.835
L134.394 297.736
L135.754 297.626
L137.113 297.506
L138.471 297.376
L139.828 297.236
L141.184 297.086
L142.539 296.926
L143.893 296.756
L145.246 296.576
L146.597 296.385
L147.946 296.185
L149.294 295.974
L150.641 295.754
L151.985 295.523
L153.328 295.283
L154.67 295.032
L156.009 294.772
L157.346 294.501
L158.681 294.221
L160.015 293.93
L161.346 293.63
L162.674 293.32
L164 293
L165.324 292.67
L166.646 292.33
L167.965 291.98
L169.281 291.621
L170.594 291.251
L171.905 290.872
L173.213 290.483
L174.518 290.085
L175.819 289.677
L177.118 289.259
L178.414 288.831
L179.706 288.394
L180.995 287.947
L182.281 287.491
L183.564 287.025
L184.842 286.549
L186.118 286.064
L187.389 285.569
L188.657 285.065
L189.921 284.552
L191.182 284.029
L192.438 283.497
L193.69 282.956
L194.938 282.405
L196.182 281.845
L197.422 281.275
L198.658 280.697
L199.889 280.109
L201.116 279.512
L202.339 278.906
L203.556 278.291
L204.77 277.666
L205.978 277.033
L207.182 276.391
L208.381 275.74
L209.575 275.08
L210.764 274.411
L211.948 273.733" style="fill:none;stroke:#ff0000;stroke-linecap:square;"/>
   </g>
   <g id="line2d_24">
    <path clip-path="url(#p7ff5b81e1d)" d="
M211.948 273.733
L211.969 273.721
L211.989 273.709
L212.009 273.697
L212.029 273.684
L212.049 273.671
L212.069 273.658
L212.088 273.645
L212.108 273.632
L212.127 273.618
L212.146 273.604
L212.165 273.59
L212.184 273.576
L212.203 273.562
L212.221 273.547
L212.24 273.532
L212.258 273.517
L212.276 273.502
L212.294 273.487
L212.312 273.471
L212.329 273.456
L212.347 273.44
L212.364 273.423
L212.381 273.407
L212.398 273.391
L212.415 273.374
L212.431 273.357
L212.448 273.34
L212.464 273.323
L212.48 273.306
L212.496 273.288
L212.511 273.271
L212.527 273.253
L212.542 273.235
L212.557 273.217
L212.572 273.198
L212.587 273.18
L212.601 273.161
L212.616 273.142
L212.63 273.123
L212.644 273.104
L212.657 273.085
L212.671 273.066
L212.684 273.046
L212.697 273.027
L212.71 273.007
L212.723 272.987
L212.735 272.967
L212.747 272.947
L212.759 272.926
L212.771 272.906
L212.783 272.885
L212.794 272.864
L212.805 272.844
L212.816 272.823
L212.827 272.802
L212.837 272.781
L212.848 272.759
L212.858 272.738
L212.867 272.716
L212.877 272.695
L212.886 272.673
L212.896 272.651
L212.904 272.63
L212.913 272.608
L212.921 272.586
L212.93 272.563
L212.938 272.541
L212.945 272.519
L212.953 272.496
L212.96 272.474
L212.967 272.451
L212.974 272.429
L212.98 272.406
L212.987 272.383
L212.993 272.361
L212.999 272.338
L213.004 272.315
L213.009 272.292
L213.015 272.269
L213.019 272.246
L213.024 272.222
L213.028 272.199
L213.032 272.176
L213.036 272.153
L213.04 272.129
L213.043 272.106
L213.046 272.083
L213.049 272.059
L213.052 272.036
L213.054 272.012
L213.056 271.989
L213.058 271.965
L213.06 271.942
L213.061 271.918
L213.062 271.894
L213.063 271.871
L213.064 271.847
L213.064 271.824
L213.064 271.8" style="fill:none;stroke:#ff0000;stroke-linecap:square;"/>
   </g>
   <g id="line2d_25">
    <path clip-path="url(#p7ff5b81e1d)" d="
M434.032 271.8
L434.025 270.208
L434.004 268.616
L433.969 267.024
L433.92 265.432
L433.857 263.841
L433.78 262.251
L433.689 260.661
L433.584 259.072
L433.465 257.484
L433.332 255.897
L433.185 254.312
L433.024 252.728
L432.85 251.145
L432.661 249.564
L432.458 247.985
L432.242 246.407
L432.011 244.832
L431.767 243.258
L431.509 241.687
L431.237 240.118
L430.951 238.552
L430.652 236.988
L430.339 235.426
L430.012 233.868
L429.671 232.313
L429.317 230.76
L428.949 229.211
L428.567 227.665
L428.172 226.123
L427.763 224.584
L427.341 223.048
L426.905 221.517
L426.456 219.989
L425.993 218.466
L425.517 216.946
L425.028 215.431
L424.525 213.92
L424.009 212.414
L423.48 210.912
L422.938 209.415
L422.382 207.923
L421.814 206.435
L421.232 204.953
L420.637 203.476
L420.029 202.004
L419.409 200.538
L418.775 199.077
L418.129 197.622
L417.47 196.172
L416.798 194.729
L416.113 193.291
L415.416 191.86
L414.706 190.434
L413.984 189.015
L413.249 187.603
L412.502 186.196
L411.743 184.797
L410.971 183.404
L410.187 182.018
L409.391 180.639
L408.583 179.267
L407.762 177.903
L406.93 176.545
L406.086 175.195
L405.23 173.852
L404.362 172.517
L403.482 171.19
L402.591 169.87
L401.688 168.559
L400.774 167.255
L399.849 165.96
L398.911 164.672
L397.963 163.393
L397.004 162.122
L396.033 160.86
L395.051 159.607
L394.058 158.362
L393.055 157.126
L392.04 155.898
L391.015 154.68
L389.979 153.471
L388.932 152.271
L387.875 151.08
L386.808 149.899
L385.73 148.727
L384.641 147.564
L383.543 146.411
L382.435 145.268
L381.316 144.135
L380.188 143.011
L379.05 141.898
L377.902 140.794
L376.744 139.701
L375.577 138.618
L374.4 137.545
L373.214 136.483
L372.018 135.431
L370.814 134.39
L369.6 133.359" style="fill:none;stroke:#000000;stroke-linecap:square;"/>
   </g>
   <g id="line2d_26">
    <path clip-path="url(#p7ff5b81e1d)" d="
M369.6 133.359
L369.6 160.2" style="fill:none;stroke:#000000;stroke-linecap:square;"/>
   </g>
   <g id="line2d_27">
    <path clip-path="url(#p7ff5b81e1d)" d="
M369.6 160.2
L368.225 161.002
L366.856 161.816
L365.495 162.643
L364.141 163.481
L362.795 164.331
L361.456 165.193
L360.125 166.067
L358.801 166.952
L357.486 167.849
L356.178 168.758
L354.878 169.678
L353.587 170.609
L352.304 171.552
L351.029 172.506
L349.762 173.471
L348.504 174.447
L347.255 175.434
L346.015 176.433
L344.783 177.442
L343.56 178.462
L342.346 179.492
L341.142 180.534
L339.946 181.586
L338.76 182.648
L337.584 183.721
L336.416 184.804
L335.259 185.897
L334.111 187
L332.972 188.114
L331.844 189.237
L330.726 190.371
L329.617 191.514
L328.519 192.667
L327.431 193.829
L326.353 195.001
L325.285 196.182
L324.228 197.373
L323.181 198.573
L322.145 199.782
L321.12 201.001
L320.106 202.228
L319.102 203.464
L318.109 204.709
L317.127 205.963
L316.157 207.225
L315.197 208.495
L314.249 209.775
L313.312 211.062
L312.386 212.357
L311.472 213.661
L310.569 214.973
L309.678 216.292
L308.798 217.62
L307.93 218.955
L307.074 220.297
L306.23 221.647
L305.398 223.005
L304.578 224.37
L303.769 225.742
L302.973 227.121
L302.189 228.506
L301.417 229.899
L300.658 231.299
L299.911 232.705
L299.176 234.118
L298.454 235.537
L297.744 236.962
L297.047 238.394
L296.362 239.831
L295.69 241.275
L295.031 242.724
L294.385 244.179
L293.751 245.64
L293.131 247.107
L292.523 248.578
L291.928 250.055
L291.347 251.538
L290.778 253.025
L290.222 254.517
L289.68 256.014
L289.151 257.516
L288.635 259.022
L288.132 260.533
L287.643 262.049
L287.167 263.568
L286.704 265.092
L286.255 266.619
L285.819 268.151
L285.397 269.686
L284.988 271.225
L284.593 272.768
L284.211 274.313
L283.843 275.863
L283.489 277.415
L283.148 278.97
L282.821 280.529
L282.508 282.09
L282.209 283.654
L281.923 285.22" style="fill:none;stroke:#000000;stroke-linecap:square;"/>
   </g>
   <g id="line2d_28">
    <path clip-path="url(#p7ff5b81e1d)" d="
M281.923 285.22
L305.168 271.8" style="fill:none;stroke:#000000;stroke-linecap:square;"/>
   </g>
   <g id="line2d_29">
    <path clip-path="url(#p7ff5b81e1d)" d="
M305.168 271.8
L306.55 272.59
L307.94 273.368
L309.336 274.134
L310.739 274.887
L312.148 275.628
L313.564 276.356
L314.986 277.072
L316.415 277.776
L317.849 278.467
L319.29 279.145
L320.736 279.81
L322.189 280.463
L323.647 281.103
L325.11 281.73
L326.579 282.344
L328.054 282.946
L329.533 283.534
L331.018 284.109
L332.508 284.671
L334.003 285.22
L335.502 285.756
L337.006 286.279
L338.515 286.788
L340.028 287.284
L341.545 287.767
L343.067 288.236
L344.593 288.692
L346.122 289.135
L347.656 289.564
L349.193 289.979
L350.733 290.381
L352.278 290.769
L353.825 291.144
L355.376 291.505
L356.93 291.853
L358.487 292.187
L360.047 292.507
L361.609 292.813
L363.174 293.106
L364.742 293.384
L366.312 293.649
L367.885 293.901
L369.459 294.138
L371.036 294.361
L372.614 294.571
L374.194 294.767
L375.776 294.948
L377.36 295.116
L378.944 295.27
L380.531 295.41
L382.118 295.536
L383.706 295.648
L385.296 295.746
L386.886 295.83
L388.476 295.9
L390.068 295.956
L391.659 295.998
L393.251 296.026
L394.844 296.04
L396.436 296.04
L398.028 296.026
L399.62 295.998
L401.212 295.956
L402.803 295.9
L404.394 295.83
L405.984 295.746
L407.573 295.648
L409.162 295.536
L410.749 295.41
L412.335 295.27
L413.92 295.116
L415.504 294.948
L417.085 294.767
L418.666 294.571
L420.244 294.361
L421.821 294.138
L423.395 293.901
L424.968 293.649
L426.538 293.384
L428.105 293.106
L429.671 292.813
L431.233 292.507
L432.793 292.187
L434.35 291.853
L435.904 291.505
L437.455 291.144
L439.002 290.769
L440.546 290.381
L442.087 289.979
L443.624 289.564
L445.158 289.135
L446.687 288.692
L448.213 288.236
L449.734 287.767
L451.252 287.284
L452.765 286.788
L454.273 286.279
L455.778 285.756
L457.277 285.22" style="fill:none;stroke:#000000;stroke-linecap:square;"/>
   </g>
   <g id="line2d_30">
    <path clip-path="url(#p7ff5b81e1d)" d="
M457.277 285.22
L434.032 271.8" style="fill:none;stroke:#000000;stroke-linecap:square;"/>
   </g>
   <g id="line2d_31">
    <path clip-path="url(#p7ff5b81e1d)" d="
M371.037 131.652
L370.998 131.619
L370.957 131.587
L370.916 131.557
L370.875 131.527
L370.832 131.498
L370.789 131.471
L370.746 131.444
L370.702 131.418
L370.657 131.393
L370.611 131.37
L370.565 131.347
L370.519 131.325
L370.472 131.305
L370.425 131.285
L370.377 131.267
L370.329 131.25
L370.28 131.234
L370.231 131.218
L370.182 131.205
L370.133 131.192
L370.083 131.18
L370.033 131.17
L369.982 131.16
L369.932 131.152
L369.881 131.145
L369.83 131.139
L369.779 131.135
L369.728 131.131
L369.677 131.129
L369.626 131.127
L369.575 131.127
L369.524 131.129
L369.472 131.131
L369.421 131.134
L369.37 131.139
L369.32 131.145
L369.269 131.152
L369.218 131.16
L369.168 131.17
L369.118 131.18
L369.068 131.192
L369.018 131.204
L368.969 131.218
L368.92 131.233
L368.872 131.249
L368.823 131.267
L368.776 131.285
L368.728 131.305
L368.681 131.325
L368.635 131.347
L368.589 131.369
L368.544 131.393
L368.499 131.418
L368.455 131.444
L368.411 131.47
L368.368 131.498
L368.326 131.527
L368.284 131.556
L368.243 131.587
L368.203 131.619
L368.163 131.651
L368.124 131.685
L368.086 131.719
L368.049 131.754
L368.013 131.79
L367.977 131.827
L367.943 131.864
L367.909 131.903
L367.876 131.942
L367.844 131.982
L367.813 132.023
L367.782 132.064
L367.753 132.106
L367.725 132.149
L367.698 132.192
L367.671 132.236
L367.646 132.28
L367.622 132.325
L367.599 132.371
L367.577 132.417
L367.555 132.464
L367.535 132.511
L367.517 132.559
L367.499 132.607
L367.482 132.655
L367.466 132.704
L367.452 132.753
L367.439 132.802
L367.426 132.852
L367.415 132.902
L367.405 132.952
L367.397 133.003
L367.389 133.053
L367.383 133.104
L367.377 133.155
L367.373 133.206
L367.37 133.257
L367.369 133.308
L367.368 133.359" style="fill:none;stroke:#008000;stroke-linecap:square;"/>
   </g>
   <g id="line2d_32">
    <path clip-path="url(#p7ff5b81e1d)" d="
M367.368 133.359
L367.368 158.917" style="fill:none;stroke:#008000;stroke-linecap:square;"/>
   </g>
   <g id="line2d_33">
    <path clip-path="url(#p7ff5b81e1d)" d="
M367.368 158.917
L365.993 159.732
L364.624 160.559
L363.263 161.398
L361.91 162.249
L360.563 163.112
L359.225 163.986
L357.894 164.872
L356.571 165.77
L355.255 166.679
L353.948 167.6
L352.649 168.532
L351.358 169.475
L350.075 170.43
L348.801 171.395
L347.535 172.372
L346.278 173.36
L345.029 174.359
L343.79 175.368
L342.559 176.389
L341.337 177.42
L340.124 178.461
L338.92 179.514
L337.725 180.576
L336.54 181.65
L335.364 182.733
L334.198 183.827
L333.041 184.93
L331.894 186.044
L330.756 187.168
L329.629 188.302
L328.511 189.445
L327.404 190.598
L326.306 191.761
L325.219 192.934
L324.142 194.115
L323.076 195.307
L322.02 196.507
L320.974 197.717
L319.939 198.935
L318.914 200.163
L317.901 201.4
L316.898 202.645
L315.906 203.899
L314.925 205.162
L313.956 206.433
L312.997 207.712
L312.049 209
L311.113 210.297
L310.188 211.601
L309.275 212.913
L308.373 214.233
L307.483 215.561
L306.604 216.897
L305.737 218.241
L304.881 219.591
L304.038 220.95
L303.206 222.315
L302.387 223.688
L301.579 225.068
L300.784 226.455
L300 227.849
L299.229 229.249
L298.47 230.657
L297.723 232.071
L296.989 233.491
L296.267 234.918
L295.558 236.351
L294.861 237.79
L294.177 239.235
L293.505 240.686
L292.846 242.143
L292.2 243.605
L291.567 245.073
L290.946 246.547
L290.338 248.026
L289.744 249.51
L289.162 250.999
L288.593 252.493
L288.037 253.993
L287.495 255.497
L286.965 257.005
L286.449 258.519
L285.946 260.036
L285.456 261.558
L284.98 263.085
L284.517 264.615
L284.067 266.149
L283.631 267.688
L283.208 269.23
L282.799 270.775
L282.403 272.324
L282.02 273.877
L281.652 275.433
L281.297 276.992
L280.955 278.554
L280.627 280.118
L280.313 281.686
L280.012 283.257
L279.725 284.83" style="fill:none;stroke:#008000;stroke-linecap:square;"/>
   </g>
   <g id="line2d_34">
    <path clip-path="url(#p7ff5b81e1d)" d="
M279.725 284.83
L279.717 284.88
L279.71 284.931
L279.704 284.982
L279.699 285.032
L279.695 285.084
L279.693 285.135
L279.691 285.186
L279.691 285.237
L279.692 285.288
L279.694 285.339
L279.697 285.39
L279.702 285.441
L279.708 285.492
L279.714 285.543
L279.722 285.594
L279.732 285.644
L279.742 285.694
L279.753 285.744
L279.766 285.794
L279.78 285.843
L279.794 285.892
L279.81 285.941
L279.827 285.989
L279.846 286.037
L279.865 286.084
L279.885 286.131
L279.907 286.177
L279.929 286.223
L279.953 286.269
L279.977 286.314
L280.003 286.358
L280.029 286.402
L280.057 286.445
L280.086 286.487
L280.115 286.529
L280.146 286.57
L280.177 286.611
L280.209 286.65
L280.243 286.689
L280.277 286.728
L280.312 286.765
L280.348 286.801
L280.384 286.837
L280.422 286.872
L280.46 286.906
L280.499 286.939
L280.539 286.971
L280.579 287.003
L280.621 287.033
L280.662 287.062
L280.705 287.091
L280.748 287.118
L280.792 287.145
L280.836 287.17
L280.881 287.194
L280.927 287.218
L280.973 287.24
L281.02 287.261
L281.067 287.282
L281.114 287.301
L281.162 287.319
L281.21 287.336
L281.259 287.351
L281.308 287.366
L281.358 287.38
L281.407 287.392
L281.457 287.403
L281.507 287.413
L281.558 287.422
L281.608 287.43
L281.659 287.437
L281.71 287.442
L281.761 287.446
L281.812 287.45
L281.863 287.452
L281.914 287.452
L281.966 287.452
L282.017 287.45
L282.068 287.448
L282.119 287.444
L282.17 287.439
L282.221 287.432
L282.271 287.425
L282.322 287.416
L282.372 287.407
L282.422 287.396
L282.472 287.384
L282.521 287.371
L282.57 287.356
L282.619 287.341
L282.668 287.324
L282.716 287.307
L282.763 287.288
L282.81 287.268
L282.857 287.247
L282.903 287.225
L282.949 287.202
L282.994 287.178
L283.039 287.153" style="fill:none;stroke:#008000;stroke-linecap:square;"/>
   </g>
   <g id="line2d_35">
    <path clip-path="url(#p7ff5b81e1d)" d="
M283.039 287.153
L305.172 274.375" style="fill:none;stroke:#008000;stroke-linecap:square;"/>
   </g>
   <g id="line2d_36">
    <path clip-path="url(#p7ff5b81e1d)" d="
M305.172 274.375
L306.566 275.158
L307.966 275.93
L309.374 276.689
L310.787 277.436
L312.208 278.17
L313.634 278.892
L315.067 279.602
L316.506 280.299
L317.951 280.983
L319.402 281.655
L320.859 282.314
L322.321 282.96
L323.789 283.594
L325.263 284.215
L326.741 284.823
L328.226 285.418
L329.715 285.999
L331.209 286.568
L332.708 287.124
L334.212 287.667
L335.721 288.197
L337.234 288.713
L338.752 289.216
L340.274 289.706
L341.8 290.183
L343.33 290.646
L344.864 291.096
L346.403 291.532
L347.945 291.956
L349.49 292.365
L351.039 292.761
L352.592 293.144
L354.147 293.513
L355.706 293.868
L357.268 294.21
L358.833 294.538
L360.401 294.852
L361.971 295.153
L363.544 295.44
L365.119 295.713
L366.697 295.973
L368.277 296.219
L369.859 296.451
L371.443 296.669
L373.029 296.873
L374.616 297.064
L376.205 297.24
L377.796 297.403
L379.388 297.552
L380.981 297.686
L382.575 297.807
L384.171 297.915
L385.767 298.008
L387.364 298.087
L388.961 298.152
L390.56 298.204
L392.158 298.241
L393.757 298.264
L395.356 298.274
L396.955 298.269
L398.553 298.251
L400.152 298.218
L401.75 298.172
L403.348 298.112
L404.945 298.037
L406.541 297.949
L408.137 297.847
L409.732 297.731
L411.325 297.601
L412.918 297.457
L414.509 297.3
L416.099 297.128
L417.687 296.942
L419.273 296.743
L420.858 296.53
L422.44 296.303
L424.021 296.062
L425.6 295.807
L427.176 295.539
L428.75 295.257
L430.321 294.961
L431.89 294.651
L433.455 294.328
L435.018 293.991
L436.578 293.641
L438.135 293.277
L439.689 292.899
L441.239 292.508
L442.786 292.103
L444.329 291.685
L445.869 291.253
L447.404 290.808
L448.936 290.349
L450.464 289.877
L451.987 289.392
L453.507 288.894
L455.021 288.382
L456.532 287.857
L458.037 287.319" style="fill:none;stroke:#008000;stroke-linecap:square;"/>
   </g>
   <g id="line2d_37">
    <path clip-path="url(#p7ff5b81e1d)" d="
M458.037 287.319
L458.085 287.301
L458.133 287.282
L458.18 287.262
L458.226 287.24
L458.272 287.218
L458.318 287.195
L458.363 287.17
L458.407 287.145
L458.451 287.119
L458.494 287.091
L458.537 287.063
L458.579 287.033
L458.62 287.003
L458.661 286.972
L458.701 286.939
L458.74 286.906
L458.778 286.872
L458.815 286.838
L458.852 286.802
L458.888 286.765
L458.923 286.728
L458.957 286.69
L458.99 286.651
L459.023 286.611
L459.054 286.571
L459.085 286.53
L459.114 286.488
L459.143 286.446
L459.17 286.402
L459.197 286.359
L459.223 286.314
L459.247 286.269
L459.271 286.224
L459.293 286.178
L459.315 286.132
L459.335 286.085
L459.354 286.037
L459.372 285.989
L459.389 285.941
L459.405 285.892
L459.42 285.843
L459.434 285.794
L459.447 285.745
L459.458 285.695
L459.468 285.645
L459.477 285.594
L459.485 285.544
L459.492 285.493
L459.498 285.442
L459.502 285.391
L459.506 285.34
L459.508 285.289
L459.509 285.238
L459.509 285.186
L459.507 285.135
L459.505 285.084
L459.501 285.033
L459.496 284.982
L459.49 284.931
L459.483 284.881
L459.475 284.83
L459.465 284.78
L459.454 284.73
L459.443 284.68
L459.43 284.63
L459.416 284.581
L459.4 284.532
L459.384 284.484
L459.367 284.436
L459.348 284.388
L459.328 284.341
L459.308 284.294
L459.286 284.248
L459.263 284.202
L459.239 284.157
L459.214 284.112
L459.188 284.068
L459.161 284.024
L459.133 283.981
L459.105 283.939
L459.075 283.897
L459.044 283.857
L459.012 283.816
L458.98 283.777
L458.946 283.738
L458.912 283.7
L458.876 283.663
L458.84 283.627
L458.803 283.592
L458.765 283.557
L458.727 283.523
L458.688 283.491
L458.648 283.459
L458.607 283.428
L458.565 283.398
L458.523 283.369
L458.48 283.341
L458.437 283.313
L458.393 283.287" style="fill:none;stroke:#008000;stroke-linecap:square;"/>
   </g>
   <g id="line2d_38">
    <path clip-path="url(#p7ff5b81e1d)" d="
M458.393 283.287
L436.26 270.509" style="fill:none;stroke:#008000;stroke-linecap:square;"/>
   </g>
   <g id="line2d_39">
    <path clip-path="url(#p7ff5b81e1d)" d="
M436.26 270.509
L436.241 268.91
L436.209 267.311
L436.163 265.713
L436.103 264.115
L436.029 262.518
L435.941 260.922
L435.839 259.326
L435.723 257.731
L435.593 256.138
L435.45 254.545
L435.292 252.954
L435.121 251.364
L434.936 249.776
L434.736 248.19
L434.523 246.605
L434.297 245.023
L434.056 243.442
L433.801 241.863
L433.533 240.287
L433.251 238.713
L432.956 237.142
L432.646 235.573
L432.323 234.007
L431.987 232.444
L431.636 230.884
L431.272 229.327
L430.895 227.774
L430.504 226.223
L430.099 224.676
L429.681 223.133
L429.249 221.594
L428.805 220.058
L428.346 218.526
L427.875 216.998
L427.39 215.475
L426.891 213.955
L426.38 212.441
L425.855 210.93
L425.317 209.425
L424.766 207.924
L424.202 206.427
L423.625 204.936
L423.035 203.45
L422.432 201.97
L421.816 200.494
L421.187 199.024
L420.545 197.56
L419.891 196.101
L419.224 194.648
L418.544 193.2
L417.852 191.759
L417.147 190.324
L416.429 188.895
L415.699 187.473
L414.957 186.056
L414.202 184.647
L413.436 183.244
L412.657 181.848
L411.865 180.458
L411.062 179.076
L410.247 177.7
L409.419 176.332
L408.58 174.971
L407.729 173.618
L406.866 172.272
L405.991 170.933
L405.105 169.602
L404.207 168.279
L403.298 166.964
L402.377 165.657
L401.445 164.358
L400.501 163.067
L399.547 161.785
L398.581 160.51
L397.604 159.245
L396.616 157.987
L395.617 156.739
L394.607 155.499
L393.587 154.268
L392.556 153.047
L391.514 151.834
L390.461 150.63
L389.398 149.436
L388.325 148.25
L387.242 147.075
L386.148 145.908
L385.044 144.752
L383.93 143.605
L382.806 142.468
L381.672 141.34
L380.528 140.223
L379.375 139.116
L378.212 138.018
L377.04 136.931
L375.858 135.854
L374.666 134.788
L373.466 133.732
L372.256 132.686
L371.037 131.652" style="fill:none;stroke:#008000;stroke-linecap:square;"/>
   </g>
  </g>
 </g>
 <defs>
  <clipPath id="p7ff5b81e1d">
   <rect height="345.6" width="446.4" x="72.0" y="43.2"/>
  </clipPath>
 </defs>
</svg>
